<svg width="32" height="32" viewBox="0 0 32 32" fill="none" xmlns="http://www.w3.org/2000/svg">
<path d="M0 16C0 7.16344 7.16344 0 16 0C24.8366 0 32 7.16344 32 16C32 24.8366 24.8366 32 16 32C7.16344 32 0 24.8366 0 16Z" fill="white"/>
<path d="M24.9721 23.7567C15.0663 28.471 8.9186 24.5267 4.98328 22.131C4.73977 21.9801 4.32588 22.1663 4.68498 22.5788C5.99603 24.1685 10.2926 28 15.9009 28C21.5131 28 24.8518 24.9378 25.2695 24.4036C25.6843 23.8739 25.3913 23.5818 24.972 23.7567H24.9721ZM27.7541 22.2204C27.4881 21.874 26.1366 21.8094 25.286 21.9139C24.4341 22.0154 23.1555 22.536 23.2666 22.8486C23.3237 22.9657 23.4401 22.9132 24.0253 22.8605C24.6121 22.802 26.256 22.5945 26.5986 23.0423C26.9427 23.4932 26.0743 25.641 25.9157 25.9874C25.7624 26.3338 25.9742 26.4231 26.2621 26.1924C26.546 25.9618 27.0599 25.3646 27.4048 24.5194C27.7473 23.6696 27.9562 22.4841 27.754 22.2204H27.7541Z" fill="#FF9900"/>
<path fill-rule="evenodd" clip-rule="evenodd" d="M18.3118 14.1371C18.3118 15.3741 18.343 16.4057 17.7178 17.5042C17.2132 18.3974 16.4138 18.9466 15.5207 18.9466C14.3016 18.9466 13.5915 18.0177 13.5915 16.6468C13.5915 13.9406 16.0163 13.4494 18.3118 13.4494V14.1371ZM21.5136 21.8761C21.3037 22.0637 21 22.0771 20.7634 21.952C19.7095 21.0768 19.5219 20.6704 18.9414 19.8353C17.1998 21.6127 15.9673 22.144 13.7077 22.144C11.0372 22.144 8.95619 20.4962 8.95619 17.1961C8.95619 14.6194 10.354 12.8644 12.3411 12.007C14.0649 11.2478 16.4719 11.1138 18.3118 10.904V10.4931C18.3118 9.73839 18.3698 8.84528 17.9277 8.19333C17.5392 7.60831 16.7979 7.36714 16.1458 7.36714C14.9357 7.36714 13.855 7.98784 13.5915 9.27395C13.5379 9.55982 13.3281 9.84118 13.0423 9.85454L9.96094 9.52415C9.70198 9.46597 9.41621 9.25616 9.48765 8.85864C10.1977 5.12543 13.5691 4 16.5879 4C18.133 4 20.1514 4.41088 21.3706 5.58092C22.9158 7.02329 22.7684 8.94797 22.7684 11.0424V15.9904C22.7684 17.4774 23.3846 18.1294 23.9651 18.9332C24.1705 19.219 24.2152 19.563 23.9562 19.7772C23.3087 20.3175 22.1565 21.3224 21.5225 21.8851L21.5135 21.8761" fill="black"/>
<path d="M24.9721 23.7567C15.0663 28.471 8.9186 24.5267 4.98328 22.131C4.73977 21.9801 4.32588 22.1663 4.68498 22.5788C5.99603 24.1685 10.2926 28 15.9009 28C21.5131 28 24.8518 24.9378 25.2695 24.4036C25.6843 23.8739 25.3913 23.5818 24.972 23.7567H24.9721ZM27.7541 22.2204C27.4881 21.874 26.1366 21.8094 25.286 21.9139C24.4341 22.0154 23.1555 22.536 23.2666 22.8486C23.3237 22.9657 23.4401 22.9132 24.0253 22.8605C24.6121 22.802 26.256 22.5945 26.5986 23.0423C26.9427 23.4932 26.0743 25.641 25.9157 25.9874C25.7624 26.3338 25.9742 26.4231 26.2621 26.1924C26.546 25.9618 27.0599 25.3646 27.4048 24.5194C27.7473 23.6696 27.9562 22.4841 27.754 22.2204H27.7541Z" fill="#FF9900"/>
<path fill-rule="evenodd" clip-rule="evenodd" d="M18.3118 14.1371C18.3118 15.3741 18.343 16.4057 17.7178 17.5042C17.2132 18.3974 16.4138 18.9466 15.5207 18.9466C14.3016 18.9466 13.5915 18.0177 13.5915 16.6468C13.5915 13.9406 16.0163 13.4494 18.3118 13.4494V14.1371ZM21.5136 21.8761C21.3037 22.0637 21 22.0771 20.7634 21.952C19.7095 21.0768 19.5219 20.6704 18.9414 19.8353C17.1998 21.6127 15.9673 22.144 13.7077 22.144C11.0372 22.144 8.95619 20.4962 8.95619 17.1961C8.95619 14.6194 10.354 12.8644 12.3411 12.007C14.0649 11.2478 16.4719 11.1138 18.3118 10.904V10.4931C18.3118 9.73839 18.3698 8.84528 17.9277 8.19333C17.5392 7.60831 16.7979 7.36714 16.1458 7.36714C14.9357 7.36714 13.855 7.98784 13.5915 9.27395C13.5379 9.55982 13.3281 9.84118 13.0423 9.85454L9.96094 9.52415C9.70198 9.46597 9.41621 9.25616 9.48765 8.85864C10.1977 5.12542 13.5691 4 16.5879 4C18.133 4 20.1514 4.41088 21.3706 5.58092C22.9158 7.02329 22.7684 8.94797 22.7684 11.0424V15.9904C22.7684 17.4774 23.3846 18.1294 23.9651 18.9333C24.1705 19.219 24.2152 19.563 23.9562 19.7772C23.3087 20.3175 22.1565 21.3224 21.5225 21.8851L21.5136 21.8761Z" fill="black"/>
</svg>
