<svg width="33" height="32" viewBox="0 0 33 32" fill="none" xmlns="http://www.w3.org/2000/svg">
  <path d="M10.6649 13.4467L16.8896 7.23248L23.1176 13.45L26.7395 9.83396L16.8896 0L7.04297 9.83068L10.6649 13.4467Z" fill="#F3BA2F" />
  <path d="M8.10626 15.9987L4.48438 12.3828L0.862313 15.9989L4.4842 19.6148L8.10626 15.9987Z" fill="#F3BA2F" />
  <path d="M10.6624 18.5538L16.8871 24.768L23.1148 18.5508L26.7388 22.1647L26.737 22.1668L16.8871 32.0005L7.04022 22.1701L7.03516 22.165L10.6624 18.5538Z" fill="#F3BA2F" />
  <path d="M29.292 19.6161L32.9141 16L29.2922 12.3841L25.6701 16.0002L29.292 19.6161Z" fill="#F3BA2F" />
  <path d="M20.5619 15.9994H20.5634L16.8881 12.3301L14.1719 15.0418H14.1717L13.8598 15.3534L13.216 15.9961L13.2109 16.0012L13.216 16.0065L16.8881 19.6725L20.5634 16.0032L20.5652 16.0012L20.5619 15.9994Z" fill="#F3BA2F" />
</svg>
