<svg width="32" height="32" viewBox="0 0 32 32" fill="none" xmlns="http://www.w3.org/2000/svg">
  <path d="M32 16C32 7.16344 24.8366 0 16 0C7.16344 0 0 7.16344 0 16C0 24.8366 7.16344 32 16 32C24.8366 32 32 24.8366 32 16Z" fill="url(#paint0_linear_8594_10834)" />
  <path d="M16.0078 21.625C12.9 21.625 10.3828 19.1078 10.3828 16C10.3828 12.8922 12.9 10.375 16.0078 10.375C18.7922 10.375 21.1032 12.4047 21.5485 15.0625H27.2157C26.7375 9.2875 21.9047 4.75 16.0078 4.75C9.79687 4.75 4.75781 9.78906 4.75781 16C4.75781 22.2109 9.79687 27.25 16.0078 27.25C21.9047 27.25 26.7375 22.7125 27.2157 16.9375H21.5438C21.0985 19.5953 18.7922 21.625 16.0078 21.625Z" fill="white" />
  <defs>
    <linearGradient id="paint0_linear_8594_10834" x1="16" y1="0" x2="16" y2="32" gradientUnits="userSpaceOnUse">
      <stop stop-color="#009EDD" />
      <stop offset="1" stop-color="#006B96" />
    </linearGradient>
  </defs>
</svg>
