<svg width="32" height="32" viewBox="0 0 32 32" fill="none" xmlns="http://www.w3.org/2000/svg">
<g clip-path="url(#clip0_626_5058)">
<path d="M16 32.0025C24.8366 32.0025 32 24.8391 32 16.0025C32 7.16595 24.8366 0.00250244 16 0.00250244C7.16344 0.00250244 0 7.16595 0 16.0025C0 24.8391 7.16344 32.0025 16 32.0025Z" fill="#1977F3"/>
<path d="M22.2291 20.6283L22.9378 16.0023H18.5007V13.0007C18.5007 11.7362 19.1195 10.501 21.1085 10.501H23.1268V6.56342C23.1268 6.56342 21.2953 6.25067 19.5448 6.25067C15.8907 6.25067 13.5012 8.4647 13.5012 12.4765V16.0023H9.43761V20.6283H13.5012V31.8087C14.3157 31.937 15.1504 32.0022 16.001 32.0022C16.8515 32.0022 17.6862 31.9347 18.5007 31.8087V20.6283H22.2291Z" fill="white"/>
</g>
<defs>
<clipPath id="clip0_626_5058">
<rect width="32" height="32" fill="white"/>
</clipPath>
</defs>
</svg>
