<svg width="32" height="32" viewBox="0 0 32 32" fill="none" xmlns="http://www.w3.org/2000/svg">
<g clip-path="url(#clip0_626_5004)">
<path d="M32 16.3601C32 15.3068 31.9046 14.3068 31.7411 13.3334H16.3473V19.3468H25.1613C24.7662 21.3202 23.6083 22.9869 21.8918 24.1202V28.1202H27.1502C30.229 25.3336 32 21.2268 32 16.3601Z" fill="#4285F4"/>
<path d="M16.3472 32C20.761 32 24.4528 30.56 27.1501 28.12L21.8917 24.1199C20.4204 25.0799 18.5541 25.6666 16.3472 25.6666C12.0832 25.6666 8.47319 22.8533 7.17903 19.0532H1.75714V23.1733C4.44084 28.4 9.95808 32 16.3472 32Z" fill="#34A853"/>
<path d="M7.17921 19.0532C6.83864 18.0932 6.66154 17.0666 6.66154 15.9999C6.66154 14.9332 6.85226 13.9065 7.17921 12.9465V8.82648H1.75733C0.640256 10.9865 -1.52588e-05 13.4132 -1.52588e-05 15.9999C-1.52588e-05 18.5866 0.640256 21.0133 1.75733 23.1733L7.17921 19.0532Z" fill="#FBBC05"/>
<path d="M16.3472 6.3334C18.7584 6.3334 20.9108 7.14674 22.6137 8.73342L27.2727 4.17338C24.4528 1.58668 20.761 0 16.3472 0C9.95808 0 4.44084 3.60004 1.75714 8.82676L7.17903 12.9468C8.47319 9.14676 12.0832 6.3334 16.3472 6.3334Z" fill="#EA4335"/>
</g>
<defs>
<clipPath id="clip0_626_5004">
<rect width="32" height="32" fill="white"/>
</clipPath>
</defs>
</svg>
