<svg width="32" height="32" viewBox="0 0 32 32" fill="none" xmlns="http://www.w3.org/2000/svg">
<g clip-path="url(#clip0_626_5032)">
<path d="M16.0047 0C9.32509 0 7.37155 0.00689289 6.99181 0.0384033C5.62104 0.152382 4.76805 0.368277 3.83878 0.831086C3.12263 1.18681 2.55783 1.59915 2.00041 2.17717C0.985248 3.23129 0.369998 4.52814 0.147277 6.06968C0.0389932 6.81805 0.00749238 6.97068 0.00109378 10.7933C-0.00136722 12.0675 0.00109378 13.7444 0.00109378 15.9937C0.00109378 22.67 0.00847678 24.6221 0.0404698 25.0013C0.151215 26.3355 0.3604 27.175 0.80338 28.0932C1.64996 29.8509 3.26684 31.1704 5.17166 31.6627C5.83121 31.8326 6.55966 31.9261 7.49484 31.9705C7.89106 31.9877 11.9296 32 15.9705 32C20.0115 32 24.0525 31.9951 24.4388 31.9754C25.5217 31.9244 26.1505 31.84 26.8457 31.6603C28.7628 31.1655 30.3502 29.8657 31.214 28.0834C31.6483 27.1873 31.8686 26.3158 31.9683 25.0512C31.9899 24.7755 31.999 20.3796 31.999 15.9895C31.999 11.5988 31.9892 7.21095 31.9675 6.93523C31.8666 5.6502 31.6464 4.78613 31.198 3.87282C30.8301 3.12519 30.4215 2.56686 29.8284 1.99598C28.77 0.984699 27.4755 0.369262 25.9329 0.14672C25.1855 0.0386494 25.0366 0.00664672 21.2122 0H16.0047Z" fill="url(#paint0_radial_626_5032)"/>
<path d="M16.0047 0C9.32509 0 7.37155 0.00689289 6.99181 0.0384033C5.62104 0.152382 4.76805 0.368277 3.83878 0.831086C3.12263 1.18681 2.55783 1.59915 2.00041 2.17717C0.985248 3.23129 0.369998 4.52814 0.147277 6.06968C0.0389932 6.81805 0.00749238 6.97068 0.00109378 10.7933C-0.00136722 12.0675 0.00109378 13.7444 0.00109378 15.9937C0.00109378 22.67 0.00847678 24.6221 0.0404698 25.0013C0.151215 26.3355 0.3604 27.175 0.80338 28.0932C1.64996 29.8509 3.26684 31.1704 5.17166 31.6627C5.83121 31.8326 6.55966 31.9261 7.49484 31.9705C7.89106 31.9877 11.9296 32 15.9705 32C20.0115 32 24.0525 31.9951 24.4388 31.9754C25.5217 31.9244 26.1505 31.84 26.8457 31.6603C28.7628 31.1655 30.3502 29.8657 31.214 28.0834C31.6483 27.1873 31.8686 26.3158 31.9683 25.0512C31.9899 24.7755 31.999 20.3796 31.999 15.9895C31.999 11.5988 31.9892 7.21095 31.9675 6.93523C31.8666 5.6502 31.6464 4.78613 31.198 3.87282C30.8301 3.12519 30.4215 2.56686 29.8284 1.99598C28.77 0.984699 27.4755 0.369262 25.9329 0.14672C25.1855 0.0386494 25.0366 0.00664672 21.2122 0H16.0047Z" fill="url(#paint1_radial_626_5032)"/>
<path d="M16.0005 5C13.0132 5 12.6383 5.01306 11.465 5.06646C10.294 5.12008 9.49463 5.30548 8.79523 5.5775C8.07177 5.85846 7.45807 6.23429 6.84666 6.84594C6.2348 7.45735 5.85898 8.07106 5.57711 8.79431C5.3044 9.49396 5.11878 10.2935 5.06608 11.4641C5.0136 12.6374 4.99985 13.0126 4.99985 16C4.99985 18.9874 5.01314 19.3612 5.0663 20.5345C5.12016 21.7056 5.30555 22.5049 5.57734 23.2043C5.85852 23.9278 6.23434 24.5415 6.84598 25.1529C7.45715 25.7648 8.07085 26.1415 8.79386 26.4225C9.49372 26.6945 10.2933 26.8799 11.4641 26.9335C12.6374 26.9869 13.012 27 15.9992 27C18.9868 27 19.3605 26.9869 20.5338 26.9335C21.7048 26.8799 22.5051 26.6945 23.2049 26.4225C23.9282 26.1415 24.541 25.7648 25.1521 25.1529C25.764 24.5415 26.1398 23.9278 26.4217 23.2045C26.6921 22.5049 26.8777 21.7053 26.9327 20.5348C26.9854 19.3614 26.9992 18.9874 26.9992 16C26.9992 13.0126 26.9854 12.6377 26.9327 11.4643C26.8777 10.2933 26.6921 9.49396 26.4217 8.79454C26.1398 8.07106 25.764 7.45735 25.1521 6.84594C24.5403 6.23406 23.9284 5.85823 23.2043 5.5775C22.503 5.30548 21.7032 5.12008 20.5322 5.06646C19.3589 5.01306 18.9854 5 15.9971 5H16.0005ZM15.0138 6.98229C15.3066 6.98183 15.6334 6.98229 16.0005 6.98229C18.9375 6.98229 19.2856 6.99283 20.4454 7.04554C21.5179 7.09458 22.0999 7.27379 22.4877 7.42435C23.001 7.62373 23.367 7.86206 23.7517 8.24706C24.1367 8.63206 24.375 8.99873 24.5749 9.51206C24.7254 9.89935 24.9049 10.4814 24.9537 11.5539C25.0064 12.7135 25.0178 13.0619 25.0178 15.9975C25.0178 18.9331 25.0064 19.2814 24.9537 20.441C24.9046 21.5135 24.7254 22.0956 24.5749 22.4829C24.3755 22.9962 24.1367 23.3618 23.7517 23.7465C23.3667 24.1315 23.0012 24.3699 22.4877 24.5692C22.1004 24.7205 21.5179 24.8992 20.4454 24.9483C19.2858 25.001 18.9375 25.0124 16.0005 25.0124C13.0634 25.0124 12.7153 25.001 11.5557 24.9483C10.4832 24.8988 9.90117 24.7196 9.51319 24.569C8.99987 24.3696 8.63321 24.1313 8.24822 23.7463C7.86323 23.3613 7.6249 22.9955 7.42507 22.482C7.27451 22.0947 7.09508 21.5126 7.04627 20.4401C6.99356 19.2805 6.98302 18.9322 6.98302 15.9947C6.98302 13.0573 6.99356 12.7108 7.04627 11.5512C7.09531 10.4787 7.27451 9.8966 7.42507 9.50885C7.62444 8.99552 7.86323 8.62885 8.24822 8.24385C8.63321 7.85885 8.99987 7.62052 9.51319 7.42069C9.90094 7.26944 10.4832 7.09069 11.5557 7.04142C12.5704 6.99558 12.9637 6.98183 15.0138 6.97954V6.98229ZM21.8721 8.80875C21.1434 8.80875 20.5522 9.39931 20.5522 10.1283C20.5522 10.857 21.1434 11.4483 21.8721 11.4483C22.6009 11.4483 23.1921 10.857 23.1921 10.1283C23.1921 9.39954 22.6009 8.80829 21.8721 8.80829V8.80875ZM16.0005 10.351C12.881 10.351 10.3517 12.8804 10.3517 16C10.3517 19.1196 12.881 21.6478 16.0005 21.6478C19.1201 21.6478 21.6485 19.1196 21.6485 16C21.6485 12.8804 19.1199 10.351 16.0003 10.351H16.0005ZM16.0005 12.3333C18.0254 12.3333 19.6671 13.9749 19.6671 16C19.6671 18.0249 18.0254 19.6667 16.0005 19.6667C13.9754 19.6667 12.334 18.0249 12.334 16C12.334 13.9749 13.9754 12.3333 16.0005 12.3333V12.3333Z" fill="white"/>
</g>
<defs>
<radialGradient id="paint0_radial_626_5032" cx="0" cy="0" r="1" gradientUnits="userSpaceOnUse" gradientTransform="translate(8.49978 34.4647) rotate(-90) scale(31.7144 29.496)">
<stop stop-color="#FFDD55"/>
<stop offset="0.1" stop-color="#FFDD55"/>
<stop offset="0.5" stop-color="#FF543E"/>
<stop offset="1" stop-color="#C837AB"/>
</radialGradient>
<radialGradient id="paint1_radial_626_5032" cx="0" cy="0" r="1" gradientUnits="userSpaceOnUse" gradientTransform="translate(-5.36001 2.30523) rotate(78.681) scale(14.1764 58.4342)">
<stop stop-color="#3771C8"/>
<stop offset="0.128" stop-color="#3771C8"/>
<stop offset="1" stop-color="#6600FF" stop-opacity="0"/>
</radialGradient>
<clipPath id="clip0_626_5032">
<path d="M0 16C0 7.16344 7.16344 0 16 0V0C24.8366 0 32 7.16344 32 16V16C32 24.8366 24.8366 32 16 32V32C7.16344 32 0 24.8366 0 16V16Z" fill="white"/>
</clipPath>
</defs>
</svg>
