<svg width="32" height="32" viewBox="0 0 32 32" fill="none" xmlns="http://www.w3.org/2000/svg">
<path fill-rule="evenodd" clip-rule="evenodd" d="M16 32C24.8366 32 32 24.8366 32 16C32 7.16344 24.8366 0 16 0C7.16344 0 0 7.16344 0 16C0 24.8366 7.16344 32 16 32Z" fill="#007EBB"/>
<path fill-rule="evenodd" clip-rule="evenodd" d="M26.2222 25.3334H22.2042V18.4897C22.2042 16.6134 21.4912 15.5648 20.0061 15.5648C18.3905 15.5648 17.5464 16.656 17.5464 18.4897V25.3334H13.6741V12.2964H17.5464V14.0524C17.5464 14.0524 18.7107 11.8981 21.4772 11.8981C24.2425 11.8981 26.2222 13.5867 26.2222 17.0791V25.3334ZM9.05446 10.5893C7.73548 10.5893 6.66667 9.51206 6.66667 8.18354C6.66667 6.85503 7.73548 5.77783 9.05446 5.77783C10.3734 5.77783 11.4416 6.85503 11.4416 8.18354C11.4416 9.51206 10.3734 10.5893 9.05446 10.5893ZM7.05498 25.3334H11.0928V12.2964H7.05498V25.3334Z" fill="white"/>
</svg>
