<svg width="32" height="32" viewBox="0 0 32 32" fill="none" xmlns="http://www.w3.org/2000/svg">
<g clip-path="url(#clip0_1405_1080)">
<rect width="32" height="32" rx="16" fill="white"/>
<path d="M15.9995 32C24.8358 32 31.999 24.8366 31.999 16C31.999 7.16344 24.8358 0 15.9995 0C7.16323 0 0 7.16344 0 16C0 24.8366 7.16323 32 15.9995 32Z" fill="#FF4500"/>
<path d="M26.6725 16C26.6725 14.7016 25.6224 13.6706 24.3432 13.6706C23.7131 13.6706 23.1404 13.9188 22.7203 14.3198C21.1165 13.1742 18.9209 12.4296 16.4771 12.3341L17.5462 7.33171L21.0211 8.07634C21.0593 8.95462 21.7848 9.66106 22.6821 9.66106C23.5986 9.66106 24.3432 8.91643 24.3432 7.99997C24.3432 7.0835 23.5986 6.33887 22.6821 6.33887C22.033 6.33887 21.4602 6.72073 21.1929 7.27443L17.3171 6.45343C17.2026 6.43433 17.088 6.45343 17.0117 6.51071C16.9162 6.56798 16.8589 6.66345 16.8398 6.77801L15.6561 12.3532C13.1741 12.4296 10.9402 13.1742 9.31738 14.3389C8.89735 13.9379 8.32457 13.6897 7.69452 13.6897C6.39623 13.6897 5.36523 14.7398 5.36523 16.0191C5.36523 16.9737 5.93801 17.7756 6.7399 18.1384C6.70171 18.3675 6.68262 18.5966 6.68262 18.8448C6.68262 22.4343 10.8639 25.3556 16.0188 25.3556C21.1738 25.3556 25.3551 22.4534 25.3551 18.8448C25.3551 18.6157 25.336 18.3675 25.2978 18.1384C26.0997 17.7756 26.6725 16.9546 26.6725 16ZM10.6729 17.6611C10.6729 16.7446 11.4176 16 12.334 16C13.2504 16 13.995 16.7446 13.995 17.6611C13.995 18.5775 13.2504 19.3222 12.334 19.3222C11.4176 19.3413 10.6729 18.5775 10.6729 17.6611ZM19.971 22.0716C18.8254 23.2171 16.6489 23.2935 16.0188 23.2935C15.3697 23.2935 13.1932 23.1981 12.0667 22.0716C11.8949 21.8997 11.8949 21.6324 12.0667 21.4606C12.2385 21.2887 12.5058 21.2887 12.6777 21.4606C13.4032 22.1861 14.9306 22.4343 16.0188 22.4343C17.1071 22.4343 18.6536 22.1861 19.36 21.4606C19.5319 21.2887 19.7992 21.2887 19.971 21.4606C20.1237 21.6324 20.1237 21.8997 19.971 22.0716ZM19.6655 19.3413C18.7491 19.3413 18.0045 18.5966 18.0045 17.6802C18.0045 16.7637 18.7491 16.0191 19.6655 16.0191C20.582 16.0191 21.3266 16.7637 21.3266 17.6802C21.3266 18.5775 20.582 19.3413 19.6655 19.3413Z" fill="white"/>
</g>
<defs>
<clipPath id="clip0_1405_1080">
<rect width="32" height="32" rx="16" fill="white"/>
</clipPath>
</defs>
</svg>
