<svg width="32" height="32" viewBox="0 0 32 32" fill="none" xmlns="http://www.w3.org/2000/svg">
<g clip-path="url(#clip0_1571_894)">
<rect width="32" height="32" rx="16" fill="white"/>
<path d="M15.9506 0C7.1415 0 0 7.14152 0 15.9509C0 24.7606 7.1415 31.9015 15.9506 31.9015C24.7606 31.9015 31.9013 24.7606 31.9013 15.9509C31.9013 7.1421 24.7606 0.000761901 15.9504 0.000761901L15.9506 0V0ZM23.2654 23.0057C22.9797 23.4743 22.3664 23.6229 21.8978 23.3352C18.1528 21.0476 13.4383 20.5295 7.88605 21.7981C7.35102 21.92 6.8177 21.5848 6.6958 21.0495C6.57333 20.5143 6.90722 19.981 7.44358 19.859C13.5196 18.4703 18.7314 19.0686 22.9359 21.6381C23.4044 21.9257 23.553 22.5371 23.2654 23.0057V23.0057ZM25.2177 18.6619C24.8577 19.2476 24.092 19.4324 23.5073 19.0724C19.2198 16.4364 12.6842 15.6731 7.61291 17.2126C6.95522 17.4112 6.26057 17.0406 6.06096 16.384C5.86287 15.7263 6.23372 15.033 6.89027 14.833C12.683 13.0752 19.8845 13.9267 24.8082 16.9524C25.3929 17.3124 25.5777 18.0781 25.2177 18.6621V18.6619ZM25.3853 14.1392C20.2445 11.0857 11.7629 10.805 6.85465 12.2947C6.06648 12.5337 5.23298 12.0888 4.99413 11.3006C4.75528 10.512 5.19984 9.67905 5.98858 9.43943C11.6229 7.72895 20.9893 8.05943 26.9079 11.5731C27.6184 11.9939 27.8508 12.9095 27.4298 13.6175C27.0108 14.3265 26.0927 14.5602 25.3861 14.1392H25.3853Z" fill="#1ED760"/>
</g>
<defs>
<clipPath id="clip0_1571_894">
<rect width="32" height="32" rx="16" fill="white"/>
</clipPath>
</defs>
</svg>
