<svg width="32" height="32" viewBox="0 0 32 32" fill="none" xmlns="http://www.w3.org/2000/svg">
<g clip-path="url(#clip0_1405_1107)">
<rect width="32" height="32" rx="16" fill="white"/>
<path d="M15.9995 0C7.16322 0 0 7.16344 0 16C0 24.8366 7.16322 32 15.9995 32C24.8358 32 31.999 24.8366 31.999 16C31.999 7.16344 24.8358 0 15.9995 0Z" fill="url(#paint0_linear_1405_1107)"/>
<path d="M24.6068 11.721C24.0129 11.721 23.4248 11.604 22.8761 11.3767C22.3274 11.1495 21.8288 10.8163 21.4088 10.3963C20.9888 9.97635 20.6557 9.47777 20.4284 8.92904C20.2011 8.38031 20.0842 7.79218 20.0842 7.19824H16.853V19.8512C16.8524 20.4281 16.6702 20.9902 16.3323 21.4577C15.9945 21.9253 15.518 22.2747 14.9705 22.4563C14.423 22.6379 13.8322 22.6426 13.2818 22.4697C12.7315 22.2968 12.2495 21.9551 11.9042 21.493C11.559 21.0309 11.3679 20.4718 11.3581 19.895C11.3483 19.3182 11.5202 18.753 11.8496 18.2794C12.179 17.8058 12.6491 17.4479 13.1932 17.2564C13.7374 17.0649 14.328 17.0495 14.8814 17.2124V14.0714C13.7054 13.9128 12.5089 14.1168 11.4519 14.6561C10.3948 15.1954 9.52748 16.0444 8.96562 17.0896C8.40375 18.1349 8.17413 19.3267 8.30741 20.5059C8.4407 21.6851 8.93054 22.7955 9.71154 23.689C10.4925 24.5825 11.5275 25.2164 12.6783 25.5061C13.829 25.7959 15.0408 25.7276 16.1517 25.3105C17.2627 24.8935 18.22 24.1474 18.8957 23.1719C19.5715 22.1964 19.9336 21.0379 19.9337 19.8512L20.0274 13.4555C21.355 14.4301 22.9595 14.9546 24.6065 14.9521L24.6068 11.721Z" fill="url(#paint1_linear_1405_1107)"/>
<path d="M23.7531 10.8402C22.5537 10.8402 21.4033 10.3636 20.5552 9.51545C19.7071 8.66726 19.2306 7.51688 19.2306 6.31738H15.9995V18.9704C15.9989 19.5473 15.8167 20.1093 15.4789 20.5769C15.141 21.0445 14.6645 21.3938 14.117 21.5755C13.5695 21.7571 12.9787 21.7618 12.4283 21.589C11.878 21.4161 11.396 21.0743 11.0507 20.6122C10.7054 20.1501 10.5144 19.591 10.5046 19.0142C10.4947 18.4374 10.6667 17.8722 10.9961 17.3986C11.3255 16.925 11.7956 16.5671 12.3397 16.3756C12.8839 16.1841 13.4745 16.1687 14.0279 16.3316V13.1906C12.8518 13.032 11.6554 13.236 10.5984 13.7753C9.54133 14.3146 8.67397 15.1635 8.1121 16.2088C7.55024 17.254 7.32061 18.4458 7.4539 19.625C7.58718 20.8042 8.07702 21.9147 8.85802 22.8081C9.63902 23.7016 10.674 24.3355 11.8247 24.6253C12.9755 24.915 14.1873 24.8468 15.2982 24.4297C16.4092 24.0126 17.3664 23.2665 18.0422 22.291C18.718 21.3155 19.0801 20.1571 19.0801 18.9704L19.1744 12.5747C20.502 13.5493 22.1065 14.0737 23.7534 14.0713L23.7531 10.8402Z" fill="url(#paint2_linear_1405_1107)"/>
<path d="M23.7528 11.6401C22.6348 11.425 21.6391 10.7962 20.9644 9.87912C20.1116 9.21172 19.5267 8.26043 19.316 7.19824H16.8533V19.8512C16.8532 20.4518 16.6567 21.0358 16.2936 21.5141C15.9306 21.9924 15.421 22.3389 14.8427 22.5005C14.2644 22.6621 13.649 22.63 13.0906 22.4091C12.5322 22.1882 12.0614 21.7907 11.7501 21.2772C11.1965 20.9168 10.791 20.3693 10.6078 19.7346C10.4246 19.1 10.4758 18.4206 10.7521 17.8206C11.0284 17.2206 11.5114 16.7401 12.1128 16.4668C12.7142 16.1935 13.3938 16.1458 14.0275 16.3322V14.0208C12.9406 14.0348 11.8792 14.3523 10.9632 14.9376C10.0471 15.5229 9.31294 16.3525 8.84344 17.333C8.37394 18.3134 8.18783 19.4055 8.30612 20.4861C8.4244 21.5667 8.84238 22.5927 9.51287 23.4484C10.3641 24.1587 11.4001 24.6116 12.4995 24.754C13.599 24.8964 14.7162 24.7225 15.7203 24.2526C16.7244 23.7826 17.5738 23.0362 18.1688 22.1008C18.7638 21.1653 19.0798 20.0796 19.0798 18.971L19.174 12.5753C20.5016 13.5499 22.1061 14.0743 23.7531 14.0719L23.7528 11.6401Z" fill="url(#paint3_linear_1405_1107)"/>
</g>
<defs>
<linearGradient id="paint0_linear_1405_1107" x1="-0.0841851" y1="32.0842" x2="31.9187" y2="0.0822817" gradientUnits="userSpaceOnUse">
<stop stop-color="#111111"/>
<stop offset="1" stop-color="#323232"/>
</linearGradient>
<linearGradient id="paint1_linear_1405_1107" x1="9.56547" y1="23.5607" x2="23.0062" y2="10.1203" gradientUnits="userSpaceOnUse">
<stop stop-color="#B5053C"/>
<stop offset="0.233" stop-color="#C90441"/>
<stop offset="0.737" stop-color="#F0014B"/>
<stop offset="1" stop-color="#FF004F"/>
</linearGradient>
<linearGradient id="paint2_linear_1405_1107" x1="8.51171" y1="22.8799" x2="22.6698" y2="8.72231" gradientUnits="userSpaceOnUse">
<stop stop-color="#00B2C9"/>
<stop offset="0.283" stop-color="#00C8D4"/>
<stop offset="0.741" stop-color="#00E6E4"/>
<stop offset="1" stop-color="#00F1EA"/>
</linearGradient>
<linearGradient id="paint3_linear_1405_1107" x1="0.579518" y1="31.6799" x2="31.9186" y2="0.341755" gradientUnits="userSpaceOnUse">
<stop stop-color="#DDE3E4"/>
<stop offset="1" stop-color="#FCF7F7"/>
</linearGradient>
<clipPath id="clip0_1405_1107">
<rect width="32" height="32" rx="16" fill="white"/>
</clipPath>
</defs>
</svg>
