<svg width="32" height="32" viewBox="0 0 32 32" fill="none" xmlns="http://www.w3.org/2000/svg">
<g clip-path="url(#clip0_1405_1075)">
<path d="M16 32C24.8366 32 32 24.8366 32 16C32 7.16344 24.8366 0 16 0C7.16344 0 0 7.16344 0 16C0 24.8366 7.16344 32 16 32Z" fill="#2DAAE1"/>
<path d="M26.2591 9.63584C25.5044 9.97073 24.6939 10.1971 23.8416 10.2989C24.7114 9.77802 25.3777 8.95265 25.6924 7.97032C24.8661 8.46106 23.9619 8.80655 23.0189 8.99177C22.2515 8.17378 21.1572 7.66309 19.9465 7.66309C17.6227 7.66309 15.738 9.54696 15.738 11.8721C15.738 12.2016 15.7751 12.523 15.8465 12.8316C12.3483 12.6558 9.24687 10.9801 7.17094 8.43391C6.80846 9.05577 6.60097 9.77878 6.60097 10.5502C6.60097 12.0103 7.34414 13.2986 8.47338 14.0532C7.80489 14.0325 7.15107 13.852 6.56658 13.527V13.5802C6.56658 15.6197 8.01723 17.3203 9.94288 17.7071C9.58914 17.804 9.21791 17.8546 8.83386 17.8546C8.56232 17.8546 8.29887 17.8289 8.04152 17.7805C8.57715 19.4522 10.1316 20.669 11.973 20.7034C10.5324 21.8326 8.71727 22.5058 6.74582 22.5058C6.40626 22.5058 6.07066 22.4855 5.74121 22.4458C7.60422 23.6404 9.81624 24.3377 12.1933 24.3377C19.935 24.3377 24.169 17.9241 24.169 12.362C24.169 12.1794 24.165 11.9982 24.1562 11.8176C24.9811 11.2209 25.6932 10.4821 26.2591 9.63584Z" fill="white"/>
</g>
<defs>
<clipPath id="clip0_1405_1075">
<rect width="32" height="32" fill="white"/>
</clipPath>
</defs>
</svg>
